<svg width="16" height="16" viewBox="0 0 4.233 4.233" version="1.1" id="svg5" xml:space="preserve" xmlns="http://www.w3.org/2000/svg"><defs id="defs2"><path id="rect5062" d="M-984.06 367.899h222.321v231.282H-984.06Z"/></defs><g id="layer1" transform="matrix(.04195 0 0 .04195 .151 -.568)"><path d="M85.096 90.203c-.856 0-1.585.28-2.19.842-.654.56-.98 1.238-.98 2.032 0 .795.326 1.472.98 2.033.605.56 1.334.841 2.19.841h8.108c.856 0 1.61-.28 2.265-.84.604-.562.906-1.24.906-2.034V34.782c0-.794-.302-1.448-.906-1.962a3.563 3.563 0 0 0-2.265-.771h-8.108c-.856 0-1.585.28-2.19.84-.654.562-.98 1.24-.98 2.034 0 .794.326 1.472.98 2.032.605.561 1.334.842 2.19.842h4.182c.604 0 .906.257.906.77v50.795c0 .561-.302.841-.906.841z" id="path18059" style="font-size:192px;font-family:Fabada;-inkscape-font-specification:Fabada;white-space:pre;shape-inside:url(#rect5062);fill:#8bd010;fill-opacity:1;stroke:#8bd010;stroke-width:1.85208;stroke-dasharray:none;stroke-opacity:1"/><path d="M42.904 90.203c.856 0 1.585.28 2.19.842.654.56.98 1.238.98 2.032 0 .795-.326 1.472-.98 2.033-.605.56-1.334.841-2.19.841h-8.108c-.856 0-1.61-.28-2.265-.84-.604-.562-.906-1.24-.906-2.034V34.782c0-.794.302-1.448.906-1.962a3.563 3.563 0 0 1 2.265-.771h8.108c.856 0 1.585.28 2.19.84.654.562.98 1.24.98 2.034 0 .794-.326 1.472-.98 2.032-.605.561-1.334.842-2.19.842h-4.182c-.604 0-.906.257-.906.77v50.795c0 .561.302.841.906.841z" id="path18055" style="font-size:192px;font-family:Fabada;-inkscape-font-specification:Fabada;white-space:pre;shape-inside:url(#rect5062);fill:#8bd010;fill-opacity:1;stroke:#8bd010;stroke-width:1.85208;stroke-dasharray:none;stroke-opacity:1"/></g><style type="text/css" id="style209">.st0{fill:#ec1c24}.st1{fill:#231f20}.st2{fill:#fff}</style></svg>