<svg viewBox="0 0 4.233 4.233" xml:space="preserve" xmlns="http://www.w3.org/2000/svg"><path d="M85.096 90.203c-.856 0-1.585.28-2.19.842-.654.56-.98 1.238-.98 2.032 0 .795.326 1.472.98 2.033.605.56 1.334.841 2.19.841h8.108c.856 0 1.61-.28 2.265-.84.604-.562.906-1.24.906-2.034V34.782c0-.794-.302-1.448-.906-1.962a3.563 3.563 0 0 0-2.265-.771h-8.108c-.856 0-1.585.28-2.19.84-.654.562-.98 1.24-.98 2.034 0 .794.326 1.472.98 2.032.605.561 1.334.842 2.19.842h4.182c.604 0 .906.257.906.77v50.795c0 .561-.302.841-.906.841zm-42.192 0c.856 0 1.585.28 2.19.842.654.56.98 1.238.98 2.032 0 .795-.326 1.472-.98 2.033-.605.56-1.334.841-2.19.841h-8.108c-.856 0-1.61-.28-2.265-.84-.604-.562-.906-1.24-.906-2.034V34.782c0-.794.302-1.448.906-1.962a3.563 3.563 0 0 1 2.265-.771h8.108c.856 0 1.585.28 2.19.84.654.562.98 1.24.98 2.034 0 .794-.326 1.472-.98 2.032-.605.561-1.334.842-2.19.842h-4.182c-.604 0-.906.257-.906.77v50.795c0 .561.302.841.906.841z" style="fill:#8bd010;stroke:#8bd010;stroke-width:1.85208;stroke-dasharray:none" transform="translate(.151 -.568) scale(.04195)"/></svg>